<mxfile host="app.diagrams.net" modified="2024-04-15T15:42:18.239Z" agent="Mozilla/5.0 (Windows NT 10.0; Win64; x64) AppleWebKit/537.36 (KHTML, like Gecko) Chrome/123.0.0.0 Safari/537.36" version="24.2.5" etag="6arTwpxC0sQ7yH34oC_N" type="github">
  <diagram name="Page-1" id="b9pu3cbIjbuCVLbmDkIR">
    <mxGraphModel>
      <root>
        <mxCell id="0" />
        <mxCell id="1" parent="0" />
      </root>
    </mxGraphModel>
  </diagram>
</mxfile>
